<svg xmlns="http://www.w3.org/2000/svg" viewBox="0 0 900 900" role="img" aria-labelledby="title desc">
  <title id="title">CleanSpace Malta logo</title>
  <desc id="desc">Simple circular logo for CleanSpace Malta cleaning service</desc>
  <rect width="900" height="900" fill="#ffffff"/>
  <circle cx="450" cy="450" r="405" fill="#ffffff" stroke="#047f94" stroke-width="30"/>
  <circle cx="450" cy="450" r="370" fill="none" stroke="#d7e3e9" stroke-width="6"/>
  <path d="M250 330 L450 170 L650 330" fill="none" stroke="#062b4f" stroke-width="46" stroke-linecap="round" stroke-linejoin="round"/>
  <path d="M295 340 V455" fill="none" stroke="#062b4f" stroke-width="42" stroke-linecap="round"/>
  <path d="M605 340 V455" fill="none" stroke="#062b4f" stroke-width="42" stroke-linecap="round"/>
  <rect x="405" y="270" width="38" height="38" rx="5" fill="#8a9198"/>
  <rect x="457" y="270" width="38" height="38" rx="5" fill="#8a9198"/>
  <rect x="405" y="322" width="38" height="38" rx="5" fill="#8a9198"/>
  <rect x="457" y="322" width="38" height="38" rx="5" fill="#8a9198"/>
  <path d="M220 505 C340 430 485 455 590 505 C650 535 700 525 745 490 C700 570 615 600 520 570 C400 530 310 500 220 545 Z" fill="#0497a7"/>
  <path d="M250 565 C330 530 410 540 500 590 C390 570 310 585 230 630 Z" fill="#062b4f" opacity="0.92"/>
  <path d="M365 405 L385 455 L435 475 L385 495 L365 545 L345 495 L295 475 L345 455 Z" fill="#0497a7"/>
  <path d="M500 420 L512 450 L542 462 L512 474 L500 504 L488 474 L458 462 L488 450 Z" fill="#0497a7"/>
  <text x="450" y="690" text-anchor="middle" font-family="Arial, Helvetica, sans-serif" font-size="88" font-weight="800">
    <tspan fill="#062b4f">Clean</tspan><tspan fill="#0497a7">Space</tspan>
  </text>
  <text x="450" y="755" text-anchor="middle" font-family="Arial, Helvetica, sans-serif" font-size="48" font-weight="700" letter-spacing="24" fill="#7a8289">MALTA</text>
</svg>
